<svg xmlns="http://www.w3.org/2000/svg" viewBox="0 0 15.16 34.7"><defs><style>.cls-1{fill:#fff;stroke:#000;stroke-miterlimit:10;stroke-width:0.2px;fill-rule:evenodd;}</style></defs><g id="Layer_2" data-name="Layer 2"><g id="svg"><path id="path0" class="cls-1" d="M1.65,1.31c-2.55,8.77-2,13.14,2,16.39,2.76,2.23,3.08,3.22,3.16,9.76,0,3.61,0,4.12-.25,4.59-.65,1.2-1.58,1.7-3.45,1.84-1.2.08-1.67.25-1.67.56,0,.08,2.74.15,6.17.15s6.16-.07,6.16-.15c0-.32-.47-.48-1.73-.57-1.72-.12-2.69-.6-3.27-1.62l-.41-.74,0-4.15c.07-6.45.45-7.58,3.23-9.75,3.3-2.55,4-5.06,3-11.44A36,36,0,0,0,13.27.4C13.12.12,12.75.1,7.55.1H2L1.65,1.31"/></g></g></svg>